<?xml version="1.0" encoding="iso-8859-1"?>
<!-- Generator: Adobe Illustrator 18.0.0, SVG Export Plug-In . SVG Version: 6.00 Build 0)  -->
<!DOCTYPE svg PUBLIC "-//W3C//DTD SVG 1.1//EN" "http://www.w3.org/Graphics/SVG/1.1/DTD/svg11.dtd">
<svg version="1.1" id="Capa_1" xmlns="http://www.w3.org/2000/svg" xmlns:xlink="http://www.w3.org/1999/xlink" x="0px" y="0px"
	 viewBox="0 0 512 512" style="enable-background:new 0 0 512 512;" xml:space="preserve">
<g>
	<polygon style="fill:#A25425;" points="60.235,304 58.353,336 336,336 336,304 	"/>
	<g>
		<rect x="336" y="368" style="fill:#000;" width="144" height="16"/>
	</g>
	<g>
		<rect x="336" y="256" style="fill:#000;" width="144" height="16"/>
	</g>
	<polygon style="fill:#A25425;" points="32,272 62.117,272 63.059,256 32,256 	"/>
	<g>
		<path style="fill:#AF6328;" d="M512,248c0,4.4-3.6,8-8,8H8c-4.4,0-8-3.6-8-8v-16c0-4.4,3.6-8,8-8h496c4.4,0,8,3.6,8,8V248z"/>
	</g>
	<g>
		<path style="fill:#E2E4E6;" d="M136,144v24c0,8.801,7.199,16,16,16h224c8.801,0,16-7.199,16-16v-24H136z"/>
	</g>
	<g>
		<circle style="fill:#35495C;" cx="264" cy="164" r="8"/>
	</g>
	<g>
		<path style="fill:#113247;" d="M376,8c4.41,0,8,3.59,8,8v120H144V16c0-4.41,3.588-8,8-8H376 M376,0H152c-8.801,0-16,7.199-16,16
			v128h256V16C392,7.199,384.801,0,376,0L376,0z"/>
	</g>
	<g>
		<path style="fill:#35495C;" d="M384,16c0-4.41-3.59-8-8-8H152c-4.412,0-8,3.59-8,8v120h240V16z"/>
	</g>
	<g>
		<path style="fill:#3B5366;" d="M376,8H266.445l39.109,128H384V16C384,11.59,380.41,8,376,8z"/>
	</g>
	<g>
		<path style="fill:#35495C;" d="M376,0H264l2.445,8H376c4.41,0,8,3.59,8,8v120h-78.446l2.446,8h84V16C392,7.199,384.801,0,376,0z"
			/>
	</g>
	<g>
		<polygon style="fill:#C9D1D7;" points="296,216 232,216 240,184 288,184 		"/>
	</g>
	<rect x="376" y="280" style="fill:#fff;" width="64" height="16"/>
	<rect x="376" y="296" style="fill:#000;" width="64" height="8"/>
	<rect x="376" y="408" style="fill:#fff;" width="64" height="16"/>
	<rect x="376" y="424" style="fill:#000;" width="64" height="8"/>
	<path style="fill:#AF6328;" d="M32,272v232c0,4.4,3.6,8,8,8s8.211-3.594,8.469-7.986L62.118,272H32z"/>
	<path style="fill:#153556;" d="M336,384v120c0,4.4,3.6,8,8,8h128c4.4,0,8-3.6,8-8V384H336z M440,432h-64v-24h64V432z"/>
	<path style="fill:#153556;" d="M336,272v96h144v-96H336z M440,304h-64v-24h64V304z"/>
	<rect x="216" y="216" style="fill:#E2E4E6;" width="96" height="8"/>
</g>
<g>
</g>
<g>
</g>
<g>
</g>
<g>
</g>
<g>
</g>
<g>
</g>
<g>
</g>
<g>
</g>
<g>
</g>
<g>
</g>
<g>
</g>
<g>
</g>
<g>
</g>
<g>
</g>
<g>
</g>
</svg>
